# xmcd
#
# Track frame offsets:
#	150
#	16360
#	30475
#	42699
#	58654
#	73245
#	90630
#	103272
#	119255
#	132856
#	149666
#	165578
#	181922
#	199868
#	214254
#	228641
#	244524
#	256575
#	270028
#	284098
#
# Disc length: 3998 seconds
#
# Revision: 0
# Processed by: cddbd v1.5.2PL0 Copyright (c) Steve Scherf et al.
# Submitted via: EZCDAudioConverter 7.1.0.1
#
DISCID=2b0f9c14
DTITLE=Nu Country Traxx Volume 228 US
DYEAR=2018
DGENRE=country
TTITLE0=Keith Urban ft. Julia Michaels - Coming Home
TTITLE1=Jake Owen - I Was Jack (You Were Diane)
TTITLE2=Rodney Atkins - Caught Up In The Country
TTITLE3=Russell Dickerson - Blue Tacoma
TTITLE4=Cale Dodds - Take You Back
TTITLE5=Scotty McCreery - This Is It
TTITLE6=Old Dominion - Hotel Key
TTITLE7=Mitchell Tenpenny - Drunk Me
TTITLE8=Craig Campbell - See You Try
TTITLE9=Frankie Justin - Crazy
TTITLE10=Jess Moskaluke - Past The Past
TTITLE11=Emerson Drive - The Road
TTITLE12=Dallas Remington - Never Turned Around
TTITLE13=Dave McElroy - Nowhere With You
TTITLE14=Melissa Mickelson - Hold On
TTITLE15=Wes Hayden ft. Andy Griggs - There's Always Now
TTITLE16=Amy Jack - Jack of All Trades
TTITLE17=Dan Davidson - Let's Go There
TTITLE18=Genevieve Fisher - Between You And Me
TTITLE19=Ben Klick - Middle Of Nowhere
EXTD=
EXTT0=
EXTT1=
EXTT2=
EXTT3=
EXTT4=
EXTT5=
EXTT6=
EXTT7=
EXTT8=
EXTT9=
EXTT10=
EXTT11=
EXTT12=
EXTT13=
EXTT14=
EXTT15=
EXTT16=
EXTT17=
EXTT18=
EXTT19=
PLAYORDER=
